<?xml version="1.0" encoding="UTF-8" standalone="no"?>
<svg
   xmlns:dc="http://purl.org/dc/elements/1.1/"
   xmlns:cc="http://creativecommons.org/ns#"
   xmlns:rdf="http://www.w3.org/1999/02/22-rdf-syntax-ns#"
   xmlns:svg="http://www.w3.org/2000/svg"
   xmlns="http://www.w3.org/2000/svg"
   viewBox="0 0 195.37875 58.124374"
   height="58.124374"
   width="195.37875"
   xml:space="preserve"
   version="1.1"
   id="svg2"><metadata
     id="metadata8"><rdf:RDF><cc:Work
         rdf:about=""><dc:format>image/svg+xml</dc:format><dc:type
           rdf:resource="http://purl.org/dc/dcmitype/StillImage" /></cc:Work></rdf:RDF></metadata><defs
     id="defs6"><clipPath
       id="clipPath16"
       clipPathUnits="userSpaceOnUse"><path
         id="path18"
         d="m 0,46.5 156.303,0 0,-46.5 L 0,0 0,46.5 Z" /></clipPath></defs><g
     transform="matrix(1.25,0,0,-1.25,0,58.124375)"
     id="g10"><g
       id="g12"><g
         clip-path="url(#clipPath16)"
         id="g14"><g
           transform="translate(21.3135,33.3525)"
           id="g20"><path
             id="path22"
             style="fill:#ffffff;fill-opacity:1;fill-rule:nonzero;stroke:none"
             d="m 0,0 c -1.282,0.841 -2.764,1.268 -4.406,1.268 -1.583,0 -3.075,-0.376 -4.434,-1.115 -0.799,-0.435 -1.561,-1.004 -2.281,-1.698 l 0,10.015 -4.135,0 0,-29.268 4.135,0 0,8.111 c 0,2.571 0.116,4.337 0.343,5.243 0.353,1.369 1.067,2.486 2.179,3.417 1.096,0.916 2.298,1.361 3.678,1.361 1.171,0 2.118,-0.279 2.812,-0.832 0.695,-0.552 1.187,-1.412 1.462,-2.554 0.116,-0.488 0.254,-1.652 0.254,-4.431 l 0,-10.315 4.136,0 0,11.068 c 0,2.866 -0.292,4.936 -0.891,6.327 C 2.242,-1.986 1.282,-0.841 0,0" /></g><g
           transform="translate(108.1172,30.6499)"
           id="g24"><path
             id="path26"
             style="fill:#ffffff;fill-opacity:1;fill-rule:nonzero;stroke:none"
             d="M 0,0 C 1.096,0 2.271,-0.6 3.489,-1.782 L 4.051,-2.326 6.793,0.506 6.229,1.05 C 4.223,2.987 2.171,3.97 0.13,3.97 c -1.786,0 -3.291,-0.581 -4.473,-1.727 -1.19,-1.152 -1.794,-2.614 -1.794,-4.346 0,-1.325 0.378,-2.523 1.123,-3.561 0.732,-1.019 2.026,-1.998 3.962,-2.995 1.971,-1.007 2.719,-1.61 2.994,-1.934 0.363,-0.438 0.538,-0.918 0.538,-1.467 0,-0.672 -0.272,-1.246 -0.832,-1.756 -0.581,-0.531 -1.27,-0.789 -2.106,-0.789 -1.25,0 -2.426,0.641 -3.596,1.961 l -0.587,0.662 -2.628,-2.988 0.397,-0.51 c 0.757,-0.975 1.726,-1.748 2.883,-2.301 1.151,-0.551 2.377,-0.832 3.64,-0.832 1.934,0 3.573,0.653 4.873,1.936 1.302,1.287 1.963,2.877 1.963,4.726 0,1.326 -0.391,2.535 -1.168,3.61 -0.766,1.023 -2.131,2.035 -4.173,3.093 -1.83,0.942 -2.556,1.56 -2.849,1.919 -0.374,0.447 -0.556,0.891 -0.556,1.355 0,0.519 0.205,0.95 0.644,1.355 C -1.166,-0.203 -0.638,0 0,0" /></g><g
           transform="translate(123.9551,41.5283)"
           id="g28"><path
             id="path30"
             style="fill:#ffffff;fill-opacity:1;fill-rule:nonzero;stroke:none"
             d="m 0,0 -4.136,0 0,-7.422 -3.508,0 0,-3.786 3.508,0 0,-17.766 4.136,0 0,17.766 4.079,0 0,3.786 L 0,-7.422 0,0 Z" /></g><g
           transform="translate(146.957,19.5176)"
           id="g32"><path
             id="path34"
             style="fill:#ffffff;fill-opacity:1;fill-rule:nonzero;stroke:none"
             d="m 0,0 c -0.605,-1.08 -1.483,-1.947 -2.611,-2.58 -2.258,-1.272 -4.943,-1.291 -7.141,0 -1.09,0.641 -1.972,1.553 -2.62,2.709 -0.652,1.16 -0.983,2.39 -0.983,3.655 0,1.278 0.327,2.508 0.971,3.654 0.644,1.143 1.52,2.042 2.603,2.672 1.085,0.629 2.286,0.949 3.571,0.949 2.026,0 3.685,-0.685 5.066,-2.097 C 0.243,7.547 0.918,5.83 0.918,3.71 0.918,2.337 0.609,1.088 0,0 m 0.753,14.588 0,-2.347 c -0.724,0.704 -1.512,1.281 -2.356,1.725 -1.437,0.754 -3.058,1.137 -4.818,1.137 -3.045,0 -5.685,-1.111 -7.85,-3.301 -2.162,-2.188 -3.257,-4.857 -3.257,-7.935 0,-3.138 1.086,-5.842 3.226,-8.031 2.147,-2.199 4.773,-3.316 7.807,-3.316 1.705,0 3.302,0.361 4.746,1.074 0.886,0.437 1.724,1.01 2.502,1.709 l 0,-2.266 4.098,0 0,21.551 -4.098,0 z" /></g><g
           transform="translate(93.0918,18.4473)"
           id="g36"><path
             id="path38"
             style="fill:#ffffff;fill-opacity:1;fill-rule:nonzero;stroke:none"
             d="m 0,0 c -1.3,-1.283 -2.985,-1.906 -5.156,-1.906 -2.148,0 -3.837,0.631 -5.169,1.929 -1.063,1.036 -1.68,2.268 -1.887,3.771 -0.056,0.412 -0.082,0.763 -0.082,1.107 l 0.008,0.217 c 0.033,1.223 0.355,2.378 0.955,3.427 0.637,1.113 1.527,1.998 2.645,2.628 1.126,0.635 2.363,0.956 3.677,0.956 1.252,0 2.44,-0.312 3.528,-0.927 C -0.399,10.591 0.446,9.749 1.032,8.699 1.626,7.639 1.927,6.411 1.927,5.047 1.927,2.932 1.296,1.279 0,0 m -47.46,1.07 c -0.605,-1.08 -1.483,-1.947 -2.61,-2.58 -2.259,-1.273 -4.943,-1.291 -7.14,0 -1.09,0.641 -1.972,1.553 -2.623,2.709 -0.651,1.16 -0.982,2.391 -0.982,3.655 0,1.278 0.327,2.507 0.973,3.654 0.642,1.143 1.518,2.042 2.602,2.672 1.085,0.63 2.286,0.949 3.571,0.949 2.027,0 3.684,-0.685 5.066,-2.096 1.388,-1.415 2.062,-3.133 2.062,-5.252 0,-1.373 -0.31,-2.621 -0.919,-3.711 M 1.797,13.353 c -0.85,0.779 -1.729,1.387 -2.624,1.815 -1.394,0.666 -2.914,1.005 -4.521,1.005 -1.932,0 -3.793,-0.505 -5.529,-1.501 -1.739,-0.995 -3.12,-2.369 -4.104,-4.081 -0.985,-1.711 -1.484,-3.582 -1.484,-5.562 0,-1.113 0.157,-2.203 0.469,-3.24 0.414,-1.373 0.364,-4.098 -1.64,-4.098 l -0.078,0.002 c -0.715,0.057 -1.307,0.573 -1.473,1.282 -0.123,0.521 -0.191,6.447 -0.191,6.447 -0.04,1.391 -0.081,2.83 -0.363,4.255 -0.142,0.719 -0.312,1.295 -0.534,1.814 -0.611,1.425 -1.571,2.573 -2.853,3.415 -1.282,0.84 -2.764,1.267 -4.406,1.267 -1.595,0 -3.094,-0.376 -4.452,-1.115 -0.795,-0.433 -1.551,-0.997 -2.262,-1.687 l 0,2.288 -4.136,0 0,-22.565 c 0,-1.873 -0.13,-2.324 -0.144,-2.367 -0.279,-0.844 -1.097,-1.143 -1.771,-1.143 -0.687,0 -1.586,0.32 -1.855,1.213 -0.046,0.16 -0.154,0.713 -0.154,2.314 0,0 0,0.522 10e-4,0.996 l 0.004,21.552 -4.404,0 0,-2.347 c -0.723,0.704 -1.51,1.28 -2.355,1.724 -1.437,0.755 -3.058,1.137 -4.818,1.137 -3.045,0 -5.685,-1.111 -7.85,-3.301 -2.161,-2.188 -3.257,-4.858 -3.257,-7.935 0,-3.138 1.086,-5.841 3.226,-8.031 2.145,-2.199 4.772,-3.316 7.807,-3.316 1.704,0 3.302,0.361 4.747,1.074 0.812,0.4 1.584,0.918 2.311,1.545 l 0,-3.268 c 0,-1.871 0.235,-3.337 0.7,-4.361 0.505,-1.109 1.281,-1.986 2.308,-2.609 1.002,-0.606 2.228,-0.914 3.643,-0.914 1.476,0 2.12,0.349 3.051,0.918 1.016,0.623 1.786,1.492 2.288,2.582 0.468,1.015 0.704,2.453 0.704,4.281 l -0.046,9.381 c 0,2.558 0.116,4.324 0.342,5.242 0.353,1.369 1.066,2.486 2.179,3.417 1.097,0.916 2.3,1.362 3.68,1.362 1.173,0 2.122,-0.281 2.822,-0.834 0.698,-0.551 1.182,-1.406 1.437,-2.544 0.352,-1.558 0.348,-3.198 0.344,-4.785 -0.002,-0.673 0.015,-1.354 0.032,-2.034 0.016,-0.629 0.032,-1.256 0.032,-1.871 0,-1.492 0.211,-2.67 0.628,-3.498 0.45,-0.893 1.141,-1.6 2.043,-2.09 0.052,-0.031 0.107,-0.057 0.195,-0.1 0.839,-0.416 1.844,-0.627 2.984,-0.627 0.572,0 1.135,0.053 1.676,0.25 0.333,0.12 0.636,0.28 0.984,0.473 0.9,0.496 1.585,1.195 2.035,2.076 0.024,0.051 0.049,0.1 0.072,0.153 0.54,-0.461 1.133,-0.873 1.772,-1.233 1.726,-0.974 3.601,-1.469 5.57,-1.469 1.678,0 3.287,0.354 4.781,1.055 0.884,0.414 1.694,0.94 2.42,1.567 -0.06,-1.586 -0.285,-2.76 -0.667,-3.495 -0.438,-0.841 -1.2,-1.56 -2.262,-2.136 -1.088,-0.588 -2.457,-0.887 -4.071,-0.887 -1.397,0 -2.799,0.115 -4.086,0.695 -0.323,0.145 -0.638,0.311 -0.935,0.5 -0.12,0.078 -0.238,0.158 -0.348,0.246 -0.056,0.045 -0.3,0.336 -0.351,0.336 l -4.689,0.016 c 0.687,-1.375 1.22,-2.053 2.034,-2.828 0.932,-0.889 2.147,-1.602 3.612,-2.123 1.443,-0.514 3.086,-0.774 4.882,-0.774 2.471,0 4.627,0.539 6.407,1.598 1.815,1.082 3.109,2.644 3.841,4.641 0.528,1.4 0.786,3.503 0.786,6.429 l 0,16.712 -4.136,0 0,-2.306 z" /></g></g></g></g></svg>